<svg width="128" height="128" xmlns="http://www.w3.org/2000/svg">

 <g>
  <title>background</title>
  <rect fill="none" id="canvas_background" height="402" width="582" y="-1" x="-1"/>
 </g>
 <g>
  <title>Layer 1</title>
  <circle id="svg_2" fill="#f3d471" r="64" cy="64" cx="64"/>
  <path id="svg_3" fill="#CC584C" d="m99,80c-3.955,-13 -8.535,-23.294 -11,-29c-8.042,0.367 -23,-7.581 -23,-18c0,-7 -6.008,-12.293 -13,-5c-2.511,2.615 -17,18 -17,18l50.064,50l31.936,0l0,-4.98c0,-5.927 -5.314,-11.02 -11,-11.02l-7,0z"/>
  <path id="svg_4" fill="#B34D43" d="m106,80l-7,0c-3.955,-13 -8.535,-23.294 -11,-29c-8.042,0.367 -23,-7.581 -23,-18c0,-7 -6.008,-12.293 -13,-5c-0.229,0.238 -0.559,0.584 -0.965,1.012c6.539,-5.766 11.965,-0.663 11.965,5.988c0,10.419 14.958,18.367 23,18c2.465,5.706 7.045,16 11,29l7,0c5.686,0 11,5.092 11,11.02l0,2.98l2,0l0,-4.98c0,-5.928 -5.314,-11.02 -11,-11.02z"/>
  <path id="svg_5" fill="#B34D43" d="m87.064,90l-48.183,-48.12c-1.196,1.27 -2.219,2.354 -2.911,3.09l49.094,49.03l31.936,0l0,-2.98c0,-0.343 -0.021,-0.683 -0.057,-1.02l-29.879,0z"/>
  <path id="svg_7" fill="#F5F5F5" d="m94.532,66.886c-0.364,-0.967 -0.724,-1.901 -1.078,-2.812l-27.127,13.213l2.246,2.243l25.959,-12.644z"/>
  <path id="svg_8" fill="#F5F5F5" d="m62.323,73.288l2.246,2.243l28.019,-13.647c-0.386,-0.964 -0.766,-1.897 -1.132,-2.785l-29.133,14.189z"/>
  <path id="svg_9" fill="#F5F5F5" d="m96.363,71.941c-0.338,-0.967 -0.678,-1.918 -1.015,-2.842l-25.02,12.186l2.246,2.242l23.789,-11.586z"/>
  <path id="svg_10" fill="#B34D43" d="m106,80l-7,0c-3.955,-13 -8.535,-23.294 -11,-29c-2.217,0.101 -5.111,4.53 -3.294,8.817c2.399,5.66 5.142,12.482 7.34,19.172c0.331,1.008 1.433,3.011 3.183,3.011c2.5,0 4.771,0 4.771,0c5.686,0 11,5.092 11,11.02l6,0.453l0,-2.453c0,-5.928 -5.314,-11.02 -11,-11.02z"/>
  <path id="svg_11" fill="#E6E6E6" d="m87.064,92l-49.153,-49.09c-1.736,1.842 -2.911,3.09 -2.911,3.09l50.064,50l31.936,0l0,-4l-29.936,0z"/>
  <circle id="svg_12" fill="#F5F5F5" r="2" cy="59" cx="88.042"/>
  <circle id="svg_13" fill="#242424" r="1" cy="59" cx="88.042"/>
  <circle id="svg_14" fill="#F5F5F5" r="2" cy="65" cx="90.042"/>
  <circle id="svg_15" fill="#242424" r="1" cy="65" cx="90.042"/>
  <circle id="svg_16" fill="#F5F5F5" r="2" cy="71" cx="93.042"/>
  <circle id="svg_17" fill="#242424" r="1" cy="71" cx="93.042"/>
  <circle id="svg_18" fill="#F5F5F5" r="2" cy="77" cx="95.042"/>
  <circle id="svg_19" fill="#242424" r="1" cy="77" cx="95.042"/>
  <path id="svg_20" fill="#F5F5F5" d="m54.418,31.583c2.125,1.458 2.207,2.958 3.166,5.208c0.905,2.124 6.336,5.503 10.027,3.668c-1.613,-2.257 -2.611,-4.775 -2.611,-7.46c0,-7 -6.008,-12.293 -13,-5c-0.737,0.768 -2.51,2.64 -4.643,4.896l0,0c1.279,-1.351 4.936,-2.77 7.061,-1.312z"/>
  <path id="svg_21" fill="#242424" d="m8.584,96c11.067,19.124 31.731,32 55.416,32s44.349,-12.876 55.416,-32l-110.832,0z"/>
  <path id="svg_22" fill="#263740" d="m118.205,98c0.414,-0.659 0.82,-1.325 1.211,-2l-110.832,0c0.391,0.675 0.797,1.341 1.211,2l108.41,0z"/>
  <path id="svg_23" fill="#F5F5F5" d="m34,57l-12,0c-1.104,0 -2,-0.896 -2,-2s0.896,-2 2,-2l12,0c1.104,0 2,0.896 2,2s-0.896,2 -2,2z"/>
  <path id="svg_24" fill="#F5F5F5" d="m14,57l-2,0c-1.104,0 -2,-0.896 -2,-2s0.896,-2 2,-2l2,0c1.104,0 2,0.896 2,2s-0.896,2 -2,2z"/>
  <path id="svg_25" fill="#F5F5F5" d="m34,67l-22,0c-1.104,0 -2,-0.896 -2,-2c0,-1.104 0.896,-2 2,-2l22,0c1.104,0 2,0.896 2,2c0,1.104 -0.896,2 -2,2z"/>
  <path id="svg_26" fill="#F5F5F5" d="m44,67l-2,0c-1.104,0 -2,-0.896 -2,-2c0,-1.104 0.896,-2 2,-2l2,0c1.104,0 2,0.896 2,2c0,1.104 -0.896,2 -2,2z"/>
  <path id="svg_27" fill="#F5F5F5" d="m22,77l-10,0c-1.104,0 -2,-0.896 -2,-2s0.896,-2 2,-2l10,0c1.104,0 2,0.896 2,2s-0.896,2 -2,2z"/>
  <path id="svg_28" fill="#F5F5F5" d="m52,77l-2,0c-1.104,0 -2,-0.896 -2,-2s0.896,-2 2,-2l2,0c1.104,0 2,0.896 2,2s-0.896,2 -2,2z"/>
  <path id="svg_29" fill="#F5F5F5" d="m42,77l-2,0c-1.104,0 -2,-0.896 -2,-2s0.896,-2 2,-2l2,0c1.104,0 2,0.896 2,2s-0.896,2 -2,2z"/>
  <path id="svg_30" fill="#F5F5F5" d="m32,77l-2,0c-1.104,0 -2,-0.896 -2,-2s0.896,-2 2,-2l2,0c1.104,0 2,0.896 2,2s-0.896,2 -2,2z"/>
 </g>
</svg>