<?xml version="1.0" ?><svg viewBox="0 0 64 64" xmlns="http://www.w3.org/2000/svg"><defs><style>.cls-1{fill:#f9efa5;}.cls-2{fill:#265060;}</style></defs><title/><g id="Burger"><circle class="cls-1" cx="32" cy="32" r="32"/><path class="cls-2" d="M41.69141,20.3418a.50019.50019,0,0,0,.84766-.53125l-.49707-.793a.50019.50019,0,1,0-.84766.53125Z"/><path class="cls-2" d="M26.44678,20.80664a.49666.49666,0,0,0,.24561-.06445l.81445-.46094a.50026.50026,0,0,0-.49219-.87109l-.81445.46094a.50022.50022,0,0,0,.24658.93555Z"/><path class="cls-2" d="M31.41211,16.06055l.89941.25879a.48445.48445,0,0,0,.13818.01953.5.5,0,0,0,.13818-.98047l-.89941-.25879a.49994.49994,0,1,0-.27637.96094Z"/><path class="cls-2" d="M34.58887,21.02148a.50985.50985,0,0,0,.06641-.00391l.92773-.123a.50045.50045,0,0,0-.13184-.99219l-.92773.123a.50025.50025,0,0,0,.06543.99609Z"/><path class="cls-2" d="M19.21875,19.85059a.49918.49918,0,0,0,.69336-.13965l.51807-.7793a.49985.49985,0,0,0-.833-.55273l-.51807.7793A.49907.49907,0,0,0,19.21875,19.85059Z"/><path class="cls-2" d="M40.88818,43.85449a.49977.49977,0,1,0-.84668.53125l.49756.793a.49977.49977,0,1,0,.84668-.53125Z"/><path class="cls-2" d="M36.35156,47.416l-.81445.46094a.50026.50026,0,0,0,.49219.87109l.81445-.46094a.50026.50026,0,0,0-.49219-.87109Z"/><path class="cls-2" d="M30.47168,47.60156l-.8999-.25879a.49994.49994,0,1,0-.27637.96094l.8999.25879a.48686.48686,0,0,0,.13818.01953.5.5,0,0,0,.13818-.98047Z"/><path class="cls-2" d="M34.10889,44.02539a.49669.49669,0,0,0-.6582.25879l-.37354.8584a.49991.49991,0,1,0,.917.39844l.37354-.8584A.499.499,0,0,0,34.10889,44.02539Z"/><path class="cls-2" d="M27.855,43.624l-.92822.123a.50025.50025,0,0,0,.06543.99609.50985.50985,0,0,0,.06641-.00391l.92822-.123A.50045.50045,0,0,0,27.855,43.624Z"/><path class="cls-2" d="M22.50684,45.88477a.49842.49842,0,0,0-.69336.13965l-.51807.7793a.49985.49985,0,1,0,.833.55273l.51807-.7793A.49907.49907,0,0,0,22.50684,45.88477Z"/><path class="cls-2" d="M19.33057,24.0459H44.66943c2.30273,0,4.28955-1.01074,5.062-2.57617a3.07025,3.07025,0,0,0-.376-3.32324C46.26074,14.10938,39.44824,11.5,32,11.5s-14.26074,2.60938-17.356,6.64648a3.07109,3.07109,0,0,0-.37549,3.32324C15.041,23.03516,17.02783,24.0459,19.33057,24.0459Zm-3.09912-4.68262C18.96191,15.80176,25.15137,13.5,32,13.5s13.03809,2.30176,15.76807,5.86328A1.08291,1.08291,0,0,1,47.938,20.585a3.61223,3.61223,0,0,1-3.26855,1.46094H19.33057A3.61223,3.61223,0,0,1,16.062,20.585,1.0836,1.0836,0,0,1,16.23145,19.36328Z"/><path class="cls-2" d="M44.66943,39.9541H19.33057c-2.30273,0-4.28955,1.01074-5.062,2.57617a3.07025,3.07025,0,0,0,.376,3.32324C17.73926,49.89063,24.55176,52.5,32,52.5s14.26074-2.60937,17.356-6.64648a3.07109,3.07109,0,0,0,.37549-3.32324C48.959,40.96484,46.97217,39.9541,44.66943,39.9541Zm3.09912,4.68262C45.03809,48.19824,38.84863,50.5,32,50.5s-13.03809-2.30176-15.76807-5.86328A1.08291,1.08291,0,0,1,16.062,43.415a3.61223,3.61223,0,0,1,3.26855-1.46094H44.66943A3.61223,3.61223,0,0,1,47.938,43.415,1.0836,1.0836,0,0,1,47.76855,44.63672Z"/><path class="cls-2" d="M48.42383,28.17383H15.57617a3.82617,3.82617,0,1,0,0,7.65234H48.42383a3.82617,3.82617,0,0,0,0-7.65234Zm0,5.65234H15.57617a1.82617,1.82617,0,1,1,0-3.65234H48.42383a1.82617,1.82617,0,0,1,0,3.65234Z"/><path class="cls-2" d="M50.0835,36.31445a5.918,5.918,0,0,0-3.25879.90039,5.35439,5.35439,0,0,1-5.54736,0,6.34394,6.34394,0,0,0-6.51562,0,5.34041,5.34041,0,0,1-5.53955,0,6.33423,6.33423,0,0,0-6.51025,0,4.92915,4.92915,0,0,1-2.77051.77441,4.92376,4.92376,0,0,1-2.769-.77441,5.90932,5.90932,0,0,0-3.25586-.90039.5.5,0,1,0,0,1,4.92429,4.92429,0,0,1,2.76953.77441,5.90877,5.90877,0,0,0,3.25537.90039,5.90932,5.90932,0,0,0,3.25586-.90039,5.33866,5.33866,0,0,1,5.53857,0,6.336,6.336,0,0,0,6.51123,0,5.35,5.35,0,0,1,5.54492,0,6.34836,6.34836,0,0,0,6.51807,0,4.93743,4.93743,0,0,1,2.77344-.77441.5.5,0,0,0,0-1Z"/><path class="cls-2" d="M13.9165,25.77246a4.92429,4.92429,0,0,1,2.76953.77441,5.90877,5.90877,0,0,0,3.25537.90039,5.90932,5.90932,0,0,0,3.25586-.90039,5.33866,5.33866,0,0,1,5.53857,0,6.336,6.336,0,0,0,6.51123,0,5.35,5.35,0,0,1,5.54492,0,6.34836,6.34836,0,0,0,6.51807,0,4.93743,4.93743,0,0,1,2.77344-.77441.5.5,0,0,0,0-1,5.918,5.918,0,0,0-3.25879.90039,5.35439,5.35439,0,0,1-5.54736,0,6.34394,6.34394,0,0,0-6.51562,0,5.34041,5.34041,0,0,1-5.53955,0,6.33423,6.33423,0,0,0-6.51025,0,4.92915,4.92915,0,0,1-2.77051.77441,4.92376,4.92376,0,0,1-2.769-.77441,5.90932,5.90932,0,0,0-3.25586-.90039.5.5,0,0,0,0,1Z"/></g></svg>