<?xml version="1.0" ?><svg data-name="Layer 1" id="Layer_1" viewBox="0 0 150 150" xmlns="http://www.w3.org/2000/svg" xmlns:xlink="http://www.w3.org/1999/xlink"><defs><style>.cls-1{fill:#13818d;}.cls-2{clip-path:url(#clip-path);}.cls-3{fill:#fff;}.cls-4{fill:#44c2c7;}</style><clipPath id="clip-path"><circle class="cls-1" cx="75" cy="75" r="65"/></clipPath></defs><title/><circle class="cls-1" cx="75" cy="75" r="65"/><g class="cls-2"><path class="cls-3" d="M96.4,101.37h1.21A7.35,7.35,0,0,0,105,94V44a7.35,7.35,0,0,0-7.35-7.35H76.77V31.21h7.77a1.47,1.47,0,1,0,0-2.94H65.63a1.47,1.47,0,1,0,0,2.94h8.2v5.45H52.38A7.35,7.35,0,0,0,45,44V94a7.35,7.35,0,0,0,7.35,7.35H53.6l-9.86,18.25,2.59,1.4,1.84-3.4h53.68l1.84,3.4,2.59-1.4Zm-39.46,0H93.06l1.53,2.83H55.41ZM49.85,114.5l3.87-7.17H96.28l3.87,7.17H49.85Z"/><rect class="cls-1" height="23.9" rx="3.55" ry="3.55" width="49.54" x="50.23" y="42.36"/><circle class="cls-4" cx="53.28" cy="93.05" r="4.23"/><circle class="cls-4" cx="96.51" cy="93.05" r="4.23"/><path class="cls-3" d="M97.54,49a0.55,0.55,0,0,1-.29-0.08L85.14,41.5a0.55,0.55,0,1,1,.58-0.94L97.83,48A0.55,0.55,0,0,1,97.54,49Z"/><path class="cls-3" d="M71.69,49a0.55,0.55,0,0,1-.29-0.08L59.28,41.5a0.55,0.55,0,0,1,.58-0.94L72,48A0.55,0.55,0,0,1,71.69,49Z"/></g><rect class="cls-1" height="2.18" width="20.92" x="64.54" y="77.36"/><rect class="cls-1" height="2.18" width="20.92" x="64.54" y="81.94"/></svg>