<?xml version="1.0" ?><!DOCTYPE svg  PUBLIC '-//W3C//DTD SVG 1.0//EN'  'http://www.w3.org/TR/2001/REC-SVG-20010904/DTD/svg10.dtd'><svg enable-background="new 0 0 100 100" height="100px" id="Layer_1" version="1.0" viewBox="0 0 100 100" width="100px" xml:space="preserve" xmlns="http://www.w3.org/2000/svg" xmlns:xlink="http://www.w3.org/1999/xlink"><g><circle cx="50" cy="50.001" fill="#DD6F5E" r="40"/><g><path d="M80.255,51.09v-1.534h-2.407v1.534h-0.097v-2.826c0-1.09-1.035-1.975-2.312-1.975    s-2.312,0.885-2.312,1.975v2.826h-0.464v-5.369c0-1.092-1.035-1.975-2.313-1.975c-1.275,0-2.31,0.883-2.31,1.975v5.369h-0.466    v-7.914c0-1.089-1.034-1.973-2.311-1.973c-1.277,0-2.312,0.884-2.312,1.973v7.914h-0.08v-1.534h-2.407v1.534H43.393v-1.534h-2.407    v1.534h-0.081v-7.914c0-1.089-1.036-1.973-2.312-1.973c-1.276,0-2.312,0.884-2.312,1.973v7.914h-0.463v-5.369    c0-1.092-1.035-1.975-2.313-1.975s-2.313,0.883-2.313,1.975v5.369h-0.463v-2.826c0-1.09-1.035-1.975-2.313-1.975    c-1.277,0-2.312,0.885-2.312,1.975v2.826h-0.097v-1.534h-2.406v1.534h-2.698v3.453h2.698v1.533h2.406v-1.533h0.097v2.828    c0,1.088,1.035,1.973,2.312,1.973c1.277,0,2.313-0.885,2.313-1.973v-2.828h0.463v5.373c0,1.089,1.035,1.974,2.313,1.974    s2.313-0.885,2.313-1.974v-5.373h0.463v7.915c0,1.089,1.035,1.973,2.312,1.973c1.276,0,2.312-0.884,2.312-1.973v-7.915h0.081    v1.533h2.407v-1.533h17.073v1.533h2.407v-1.533h0.08v7.915c0,1.089,1.034,1.973,2.312,1.973c1.276,0,2.311-0.884,2.311-1.973    v-7.915h0.466v5.373c0,1.089,1.034,1.974,2.31,1.974c1.278,0,2.313-0.885,2.313-1.974v-5.373h0.464v2.828    c0,1.088,1.035,1.973,2.312,1.973s2.312-0.885,2.312-1.973v-2.828h0.097v1.533h2.407v-1.533h2.852V51.09H80.255z" fill="#B84F3F"/></g><g><rect fill="#797E89" height="3.453" width="62.201" x="18.9" y="48.273"/><path d="M38.898,59.642c0,1.089-1.035,1.972-2.312,1.972l0,0c-1.276,0-2.312-0.883-2.312-1.972V40.359    c0-1.089,1.035-1.973,2.312-1.973l0,0c1.277,0,2.312,0.884,2.312,1.973V59.642z" fill="#2C2E36"/><path d="M33.813,57.1c0,1.089-1.036,1.974-2.312,1.974l0,0c-1.278,0-2.313-0.885-2.313-1.974V42.903    c0-1.092,1.036-1.974,2.313-1.974l0,0c1.276,0,2.312,0.882,2.312,1.974V57.1z" fill="#2C2E36"/><path d="M28.725,54.555c0,1.088-1.035,1.973-2.312,1.973l0,0c-1.278,0-2.312-0.885-2.312-1.973v-9.107    c0-1.09,1.034-1.975,2.312-1.975l0,0c1.277,0,2.312,0.885,2.312,1.975V54.555z" fill="#2C2E36"/><path d="M36.586,38.987c-0.942,0-1.71,0.615-1.71,1.372v0.848c0-0.757,0.769-1.372,1.71-1.372    c0.944,0,1.711,0.615,1.711,1.372v-0.848C38.297,39.603,37.53,38.987,36.586,38.987z" fill="#5D626C"/><path d="M31.5,41.529c-0.944,0-1.711,0.617-1.711,1.374v0.847c0-0.757,0.767-1.372,1.711-1.372    c0.942,0,1.71,0.615,1.71,1.372v-0.847C33.21,42.146,32.442,41.529,31.5,41.529z" fill="#5D626C"/><path d="M26.413,44.075c-0.943,0-1.711,0.615-1.711,1.372v0.847c0-0.756,0.768-1.373,1.711-1.373    c0.943,0,1.71,0.617,1.71,1.373v-0.847C28.123,44.69,27.355,44.075,26.413,44.075z" fill="#5D626C"/><path d="M36.586,60.59c-0.942,0-1.71-0.615-1.71-1.372v0.848c0,0.757,0.769,1.372,1.71,1.372    c0.944,0,1.711-0.615,1.711-1.372v-0.848C38.297,59.975,37.53,60.59,36.586,60.59z" fill="#5D626C"/><path d="M31.5,58.046c-0.944,0-1.711-0.614-1.711-1.372v0.848c0,0.758,0.767,1.374,1.711,1.374    c0.942,0,1.71-0.616,1.71-1.374v-0.848C33.21,57.432,32.442,58.046,31.5,58.046z" fill="#5D626C"/><path d="M26.413,55.504c-0.943,0-1.711-0.617-1.711-1.373v0.849c0,0.756,0.768,1.37,1.711,1.37    c0.943,0,1.71-0.614,1.71-1.37v-0.849C28.123,54.887,27.355,55.504,26.413,55.504z" fill="#5D626C"/><g><rect fill="#2C2E36" height="6.521" width="2.406" x="21.598" y="46.739"/><rect fill="#5D626C" height="6.418" width="1.794" x="21.833" y="46.791"/><rect fill="#797E89" height="3.919" width="1.794" x="21.833" y="49.29"/><rect fill="#A7ADBD" height="1.96" width="1.794" x="21.833" y="51.249"/></g><g><rect fill="#2C2E36" height="6.521" width="2.407" x="38.979" y="46.739"/><rect fill="#5D626C" height="6.418" width="1.794" x="39.216" y="46.791"/><rect fill="#797E89" height="3.919" width="1.794" x="39.216" y="49.29"/><rect fill="#A7ADBD" height="1.96" width="1.794" x="39.216" y="51.249"/></g><path d="M60.946,59.642c0,1.089,1.035,1.972,2.312,1.972l0,0c1.276,0,2.311-0.883,2.311-1.972V40.359    c0-1.089-1.034-1.973-2.311-1.973l0,0c-1.276,0-2.312,0.884-2.312,1.973V59.642z" fill="#2C2E36"/><path d="M66.034,57.1c0,1.089,1.034,1.974,2.31,1.974l0,0c1.278,0,2.313-0.885,2.313-1.974V42.903    c0-1.092-1.035-1.974-2.313-1.974l0,0c-1.275,0-2.31,0.882-2.31,1.974V57.1z" fill="#2C2E36"/><path d="M71.121,54.555c0,1.088,1.035,1.973,2.312,1.973l0,0c1.276,0,2.312-0.885,2.312-1.973v-9.107    c0-1.09-1.035-1.975-2.312-1.975l0,0c-1.276,0-2.312,0.885-2.312,1.975V54.555z" fill="#2C2E36"/><path d="M63.258,38.987c0.943,0,1.711,0.615,1.711,1.372v0.848c0-0.757-0.768-1.372-1.711-1.372    s-1.711,0.615-1.711,1.372v-0.848C61.547,39.603,62.314,38.987,63.258,38.987z" fill="#5D626C"/><path d="M68.344,41.529c0.945,0,1.712,0.617,1.712,1.374v0.847c0-0.757-0.767-1.372-1.712-1.372    c-0.941,0-1.71,0.615-1.71,1.372v-0.847C66.634,42.146,67.402,41.529,68.344,41.529z" fill="#5D626C"/><path d="M73.433,44.075c0.942,0,1.71,0.615,1.71,1.372v0.847c0-0.756-0.768-1.373-1.71-1.373    c-0.943,0-1.711,0.617-1.711,1.373v-0.847C71.722,44.69,72.489,44.075,73.433,44.075z" fill="#5D626C"/><path d="M63.258,60.59c0.943,0,1.711-0.615,1.711-1.372v0.848c0,0.757-0.768,1.372-1.711,1.372    s-1.711-0.615-1.711-1.372v-0.848C61.547,59.975,62.314,60.59,63.258,60.59z" fill="#5D626C"/><path d="M68.344,58.046c0.945,0,1.712-0.614,1.712-1.372v0.848c0,0.758-0.767,1.374-1.712,1.374    c-0.941,0-1.71-0.616-1.71-1.374v-0.848C66.634,57.432,67.402,58.046,68.344,58.046z" fill="#5D626C"/><path d="M73.433,55.504c0.942,0,1.71-0.617,1.71-1.373v0.849c0,0.756-0.768,1.37-1.71,1.37    c-0.943,0-1.711-0.614-1.711-1.37v-0.849C71.722,54.887,72.489,55.504,73.433,55.504z" fill="#5D626C"/><g><rect fill="#2C2E36" height="6.521" width="2.407" x="75.841" y="46.739"/><rect fill="#5D626C" height="6.418" width="1.794" x="76.217" y="46.791"/><rect fill="#797E89" height="3.919" width="1.794" x="76.217" y="49.29"/><rect fill="#A7ADBD" height="1.96" width="1.794" x="76.217" y="51.249"/></g><g><rect fill="#2C2E36" height="6.521" width="2.407" x="58.459" y="46.739"/><rect fill="#5D626C" height="6.418" width="1.792" x="58.836" y="46.791"/><rect fill="#797E89" height="3.919" width="1.792" x="58.836" y="49.29"/><rect fill="#A7ADBD" height="1.96" width="1.792" x="58.836" y="51.249"/></g></g></g></svg>