<svg width="512" height="512" xmlns="http://www.w3.org/2000/svg">

 <g>
  <title>background</title>
  <rect fill="none" id="canvas_background" height="514" width="514" y="-1" x="-1"/>
 </g>
 <g>
  <title>Layer 1</title>
  <circle id="svg_1" fill="#aad8b0" r="243" cy="256" cx="249.804"/>
  <path id="svg_3" fill="#f4f0e1" d="m493.412,129.291l0,333.07c0,4.95 -0.01,9 -0.01,9c0,0.01 -1.27,3.86 -2.81,8.56l-8.1,12.49c-4.11,2.76 -7.48,5.03 -7.49,5.05c-0.01,0.01 -4.07,0.03 -9.02,0.03l-288.85,0c-4.95,0 -6.5,-3.19 -3.45,-7.09l8.74,-11.14c3.06,-3.9 5.56,-11.13 5.56,-16.08l0,-333.89c0,-4.95 4.05,-9 9,-9l287.43,0c4.95,0 9,4.05 9,9z"/>
  <path id="svg_5" fill="#333333" d="m248.397,218.62l0,-11.021l6.179,0l0,-43.193l-6.179,0l0,-11.021l19.409,0l16.998,40.678l0,-29.657l-6.013,0l0,-11.021l20.729,0l0,11.021l-6.478,0l0,54.683l-10.298,0l-19.931,-48.352l0,36.862l5.813,0l0,11.021l-20.229,0l0,0z"/>
  <path id="svg_6" fill="#333333" d="m302.709,218.62l0,-11.021l5.548,0l0,-43.193l-5.548,0l0,-11.021l40.727,0l0,20.682l-8.837,0l0,-9.661l-14.317,0l0,15.054l11.561,0l0,11.021l-11.561,0l0,17.118l14.317,0l0,-9.755l8.837,0l0,20.776l-40.727,0l0,0z"/>
  <path id="svg_7" fill="#333333" d="m363.832,219.041l-13.188,-54.636l-4.883,0l0,-11.021l20.828,0l0,11.021l-4.783,0l7.507,31.328l7.043,-31.328l-4.186,0l0,-11.021l16.609,0l0,11.021l-4.285,0l7.573,31.328l7.275,-31.328l-4.618,0l0,-11.021l18.503,0l0,11.021l-5.016,0l-12.756,54.636l-8.637,0l-7.275,-29.78l-6.876,29.78l-8.835,0z"/>
  <path id="svg_8" fill="#333333" d="m416.417,218.62l0,-22.23l7.839,0c0.089,4.064 0.842,7.058 2.259,8.981s3.034,2.884 4.851,2.884c1.417,0 2.612,-0.696 3.587,-2.087s1.462,-3.025 1.462,-4.901c0,-2 -0.477,-3.681 -1.429,-5.042c-0.952,-1.36 -2.692,-2.909 -5.221,-4.647c-5.346,-3.632 -8.973,-6.842 -10.883,-9.63c-1.909,-2.787 -2.864,-6.546 -2.864,-11.275c0,-5.7 1.263,-10.116 3.787,-13.248s5.393,-4.698 8.604,-4.698c3.676,0 6.522,2.025 8.537,6.074l0,-5.417l7.807,0l0,19.838l-7.807,0c-0.243,-3.064 -0.991,-5.432 -2.242,-7.105c-1.251,-1.672 -2.707,-2.509 -4.368,-2.509c-1.284,0 -2.37,0.485 -3.255,1.454c-0.887,0.969 -1.329,2.236 -1.329,3.799c0,1.345 0.365,2.619 1.097,3.822c0.73,1.204 2.869,2.91 6.416,5.118c3.415,2.147 6.034,4.088 7.858,5.825c1.825,1.736 3.268,3.99 4.33,6.759c1.061,2.77 1.592,5.969 1.592,9.599c0,6.447 -1.328,11.297 -3.986,14.551c-2.657,3.254 -5.802,4.881 -9.434,4.881c-4.053,0 -7.176,-2.118 -9.368,-6.355l0,5.558l-7.84,0l0,0.001z"/>
  <rect id="svg_9" fill="#676764" y="251.649" x="217.778" width="108.245" height="123.559"/>
  <line id="svg_10" fill="none" stroke="#676764" stroke-width="6" stroke-miterlimit="10" y2="255.458" y1="255.458" x2="342.006" x1="467.663"/>
  <line id="svg_11" fill="none" stroke="#676764" stroke-width="6" stroke-miterlimit="10" y2="269.633" y1="269.633" x2="342.006" x1="467.663"/>
  <line id="svg_12" fill="none" stroke="#676764" stroke-width="6" stroke-miterlimit="10" y2="283.808" y1="283.808" x2="342.006" x1="467.663"/>
  <line id="svg_13" fill="none" stroke="#676764" stroke-width="6" stroke-miterlimit="10" y2="297.983" y1="297.983" x2="342.006" x1="467.663"/>
  <line id="svg_14" fill="none" stroke="#676764" stroke-width="6" stroke-miterlimit="10" y2="312.158" y1="312.158" x2="342.006" x1="467.663"/>
  <line id="svg_15" fill="none" stroke="#676764" stroke-width="6" stroke-miterlimit="10" y2="326.333" y1="326.333" x2="342.006" x1="467.663"/>
  <line id="svg_16" fill="none" stroke="#676764" stroke-width="6" stroke-miterlimit="10" y2="340.508" y1="340.508" x2="342.006" x1="467.663"/>
  <line id="svg_17" fill="none" stroke="#676764" stroke-width="6" stroke-miterlimit="10" y2="354.683" y1="354.683" x2="342.006" x1="467.663"/>
  <line id="svg_18" fill="none" stroke="#676764" stroke-width="6" stroke-miterlimit="10" y2="368.858" y1="368.858" x2="342.006" x1="467.663"/>
  <line id="svg_19" fill="none" stroke="#676764" stroke-width="6" stroke-miterlimit="10" y2="399.055" y1="399.055" x2="466.696" x1="217.778"/>
  <line id="svg_20" fill="none" stroke="#676764" stroke-width="6" stroke-miterlimit="10" y2="413.23" y1="413.23" x2="466.696" x1="217.778"/>
  <line id="svg_21" fill="none" stroke="#676764" stroke-width="6" stroke-miterlimit="10" y2="427.405" y1="427.405" x2="466.696" x1="217.778"/>
  <line id="svg_22" fill="none" stroke="#676764" stroke-width="6" stroke-miterlimit="10" y2="441.58" y1="441.58" x2="466.696" x1="217.778"/>
  <line id="svg_23" fill="none" stroke="#676764" stroke-width="6" stroke-miterlimit="10" y2="455.755" y1="455.755" x2="466.696" x1="217.778"/>
  <line id="svg_24" fill="none" stroke="#676764" stroke-width="6" stroke-miterlimit="10" y2="469.93" y1="469.93" x2="466.696" x1="217.778"/>
  <path id="svg_26" opacity="0.2" d="m493.412,455.751l0,6.61c0,4.95 -0.01,9 -0.01,9c0,0.01 -1.27,3.86 -2.81,8.56l-8.1,12.49c-4.11,2.76 -7.48,5.03 -7.49,5.05c-0.01,0.01 -4.07,0.03 -9.02,0.03l-288.85,0c-4.95,0 -6.5,-3.19 -3.45,-7.09l8.74,-11.14c3.06,-3.9 5.56,-11.13 5.56,-16.08l0,-7.43l305.43,0l0,0z"/>
  <path id="svg_28" fill="#EBE3C5" d="m158.915,494.844c-5.701,3.151 0.978,-1.333 2.396,-2.597c2.201,-1.963 4.356,-3.983 6.606,-5.89c1.262,-1.07 2.582,-2.135 3.959,-3.135c0.268,-4.71 0.647,-9.412 1.037,-14.115c0.246,-2.97 0.503,-5.942 0.688,-8.917c0.031,-0.498 0.078,-1.916 0.122,-3.168l-19.741,0l0,-229.45l-39.21,0l0,243.32c0,14.63 8.82,26.6 19.61,26.6l20.668,0c1.177,-0.988 2.472,-1.878 3.865,-2.648z"/>
  <path id="svg_29" fill="#EBE3C5" d="m158.915,494.844c-5.701,3.151 0.978,-1.333 2.396,-2.597c2.201,-1.963 4.356,-3.983 6.606,-5.89c1.262,-1.07 2.582,-2.135 3.959,-3.135c0.268,-4.71 0.647,-9.412 1.037,-14.115c0.246,-2.97 0.503,-5.942 0.688,-8.917c0.031,-0.498 0.078,-1.916 0.122,-3.168l-19.741,0l0,-229.45l-39.21,0l0,243.32c0,14.63 8.82,26.6 19.61,26.6l20.668,0c1.177,-0.988 2.472,-1.878 3.865,-2.648z"/>
  <path id="svg_30" fill="#f4f0e1" d="m158.915,494.844c-5.701,3.151 0.978,-1.333 2.396,-2.597c2.201,-1.963 4.356,-3.983 6.606,-5.89c1.262,-1.07 2.582,-2.135 3.959,-3.135c0.268,-4.71 0.647,-9.412 1.037,-14.115c0.246,-2.97 0.503,-5.942 0.688,-8.917c0.031,-0.498 0.078,-1.916 0.122,-3.168l-19.741,0l0,-229.45l-39.21,0l0,243.32c0,14.63 8.82,26.6 19.61,26.6l20.668,0c1.177,-0.988 2.472,-1.878 3.865,-2.648z"/>
  <path id="svg_32" opacity="0.1" d="m176.662,457.021l0,13.87c0,14.63 -8.82,26.6 -19.6,26.6c-10.79,0 -19.61,-11.97 -19.61,-26.6l0,-243.32l16.53,0l0,229.45l22.68,0z"/>
  <path id="svg_34" fill="#EBE3C5" d="m188.006,470.892c0,14.627 -8.823,26.595 -19.607,26.595s-19.607,-11.968 -19.607,-26.595l0,-291.519l39.213,0l0.001,291.519l0,0z"/>
  <path id="svg_35" fill="#f4f0e1" d="m188.006,470.892c0,14.627 -8.823,26.595 -19.607,26.595s-19.607,-11.968 -19.607,-26.595l0,-291.519l39.213,0l0.001,291.519l0,0z"/>
  <path id="svg_37" opacity="0.1" d="m188.002,179.371l0,291.52c0,14.63 -8.82,26.6 -19.6,26.6c-1.97,0 -3.88,-0.4 -5.67,-1.15c8.04,-3.32 13.93,-13.49 13.93,-25.45l0,-291.52l11.34,0z"/>
 </g>
</svg>