<?xml version="1.0" ?><!DOCTYPE svg  PUBLIC '-//W3C//DTD SVG 1.1//EN'  'http://www.w3.org/Graphics/SVG/1.1/DTD/svg11.dtd'><svg height="128px" id="Layer_1" style="enable-background:new 0 0 128 128;" version="1.1" viewBox="0 0 128 128" width="128px" xml:space="preserve" xmlns="http://www.w3.org/2000/svg" xmlns:xlink="http://www.w3.org/1999/xlink"><g><circle cx="64" cy="64" r="64" style="fill:#F2CF61;"/><path d="M99,80c-3.955-13-8.535-23.294-11-29c-8.042,0.367-23-7.581-23-18c0-7-6.008-12.293-13-5   c-2.511,2.615-17,18-17,18l50.064,50H117v-4.98c0-5.927-5.314-11.02-11-11.02H99z" style="fill:#CC584C;"/><path d="M106,80h-7c-3.955-13-8.535-23.294-11-29c-8.042,0.367-23-7.581-23-18c0-7-6.008-12.293-13-5   c-0.229,0.238-0.559,0.584-0.965,1.012C57.574,23.246,63,28.349,63,35c0,10.419,14.958,18.367,23,18c2.465,5.706,7.045,16,11,29h7   c5.686,0,11,5.092,11,11.02V96h2v-4.98C117,85.092,111.686,80,106,80z" style="fill:#B34D43;"/><path d="M87.064,90L38.881,41.88c-1.196,1.27-2.219,2.354-2.911,3.09L85.064,94H117v-2.98   c0-0.343-0.021-0.683-0.057-1.02H87.064z" style="fill:#B34D43;"/><g><path d="M94.532,66.886c-0.364-0.967-0.724-1.901-1.078-2.812L66.327,77.287l2.246,2.243L94.532,66.886z" style="fill:#F5F5F5;"/><path d="M62.323,73.288l2.246,2.243l28.019-13.647c-0.386-0.964-0.766-1.897-1.132-2.785L62.323,73.288z" style="fill:#F5F5F5;"/><path d="M96.363,71.941c-0.338-0.967-0.678-1.918-1.015-2.842l-25.02,12.186l2.246,2.242L96.363,71.941z" style="fill:#F5F5F5;"/></g><path d="M106,80h-7c-3.955-13-8.535-23.294-11-29c-2.217,0.101-5.111,4.53-3.294,8.817   c2.399,5.66,5.142,12.482,7.34,19.172C92.377,79.997,93.479,82,95.229,82c2.5,0,4.771,0,4.771,0c5.686,0,11,5.092,11,11.02l6,0.453   V91.02C117,85.092,111.686,80,106,80z" style="fill:#B34D43;"/><path d="M87.064,92L37.911,42.91C36.175,44.752,35,46,35,46l50.064,50H117v-4H87.064z" style="fill:#E6E6E6;"/><circle cx="88.042" cy="59" r="2" style="fill:#F5F5F5;"/><circle cx="88.042" cy="59" r="1" style="fill:#242424;"/><circle cx="90.042" cy="65" r="2" style="fill:#F5F5F5;"/><circle cx="90.042" cy="65" r="1" style="fill:#242424;"/><circle cx="93.042" cy="71" r="2" style="fill:#F5F5F5;"/><circle cx="93.042" cy="71" r="1" style="fill:#242424;"/><circle cx="95.042" cy="77" r="2" style="fill:#F5F5F5;"/><circle cx="95.042" cy="77" r="1" style="fill:#242424;"/><path d="M54.418,31.583c2.125,1.458,2.207,2.958,3.166,5.208c0.905,2.124,6.336,5.503,10.027,3.668   C65.998,38.202,65,35.684,65,32.999c0-7-6.008-12.293-13-5c-0.737,0.768-2.51,2.64-4.643,4.896l0,0   C48.636,31.544,52.293,30.125,54.418,31.583z" style="fill:#F5F5F5;"/><path d="M8.584,96C19.651,115.124,40.315,128,64,128s44.349-12.876,55.416-32H8.584z" style="fill:#242424;"/><path d="M118.205,98c0.414-0.659,0.82-1.325,1.211-2H8.584c0.391,0.675,0.797,1.341,1.211,2H118.205z" style="fill:#263740;"/><path d="M34,57H22c-1.104,0-2-0.896-2-2s0.896-2,2-2h12c1.104,0,2,0.896,2,2S35.104,57,34,57z" style="fill:#F5F5F5;"/><path d="M14,57h-2c-1.104,0-2-0.896-2-2s0.896-2,2-2h2c1.104,0,2,0.896,2,2S15.104,57,14,57z" style="fill:#F5F5F5;"/><path d="M34,67H12c-1.104,0-2-0.896-2-2c0-1.104,0.896-2,2-2h22c1.104,0,2,0.896,2,2   C36,66.104,35.104,67,34,67z" style="fill:#F5F5F5;"/><path d="M44,67h-2c-1.104,0-2-0.896-2-2c0-1.104,0.896-2,2-2h2c1.104,0,2,0.896,2,2   C46,66.104,45.104,67,44,67z" style="fill:#F5F5F5;"/><path d="M22,77H12c-1.104,0-2-0.896-2-2s0.896-2,2-2h10c1.104,0,2,0.896,2,2S23.104,77,22,77z" style="fill:#F5F5F5;"/><path d="M52,77h-2c-1.104,0-2-0.896-2-2s0.896-2,2-2h2c1.104,0,2,0.896,2,2S53.104,77,52,77z" style="fill:#F5F5F5;"/><path d="M42,77h-2c-1.104,0-2-0.896-2-2s0.896-2,2-2h2c1.104,0,2,0.896,2,2S43.104,77,42,77z" style="fill:#F5F5F5;"/><path d="M32,77h-2c-1.104,0-2-0.896-2-2s0.896-2,2-2h2c1.104,0,2,0.896,2,2S33.104,77,32,77z" style="fill:#F5F5F5;"/></g></svg>